<?xml version="1.0" encoding="utf-8"?>
<!-- Generator: Adobe Illustrator 22.0.1, SVG Export Plug-In . SVG Version: 6.00 Build 0)  -->
<svg version="1.1" xmlns="http://www.w3.org/2000/svg" xmlns:xlink="http://www.w3.org/1999/xlink" x="0px" y="0px"
	 viewBox="0 0 200 200" style="enable-background:new 0 0 200 200;" xml:space="preserve">
<style type="text/css">
	.st0{display:none;}
	.st1{display:inline;fill:none;stroke:#244356;stroke-width:4;stroke-linecap:round;stroke-linejoin:round;stroke-miterlimit:10;}
	.st2{display:inline;fill:none;stroke:#244356;stroke-width:4;stroke-linecap:round;stroke-miterlimit:10;}
	.st3{display:inline;}
	.st4{fill:none;stroke:#244356;stroke-width:4;stroke-linecap:round;stroke-miterlimit:10;}
	.st5{fill:none;stroke:#244356;stroke-width:4;stroke-linecap:round;stroke-linejoin:round;stroke-miterlimit:10;}
	.st6{fill:none;stroke:#879CBE;stroke-width:4;stroke-linecap:round;stroke-linejoin:round;stroke-miterlimit:10;}
</style>
<g id="vader" class="st0">
	<path class="st1" d="M110.2,131.1c4.2,2.8,16.2,4.4,27.1,4.3"/>
	<path class="st1" d="M89.3,131.1c-4.2,2.8-16.2,4.4-27.1,4.3"/>
	<polyline class="st1" points="91.4,41.3 91.4,3.8 108.1,3.8 108.1,72.6 91.4,72.6 91.4,62.2 	"/>
	<path class="st1" d="M89.3,130.5c0-5.8,4.7-9.9,10.4-9.9s10.4,4.1,10.4,9.9v11H89.3V130.5z"/>
	<circle class="st1" cx="64.3" cy="176.9" r="6.3"/>
	<circle class="st1" cx="135.2" cy="176.9" r="6.3"/>
	<line class="st1" x1="70.6" y1="176.9" x2="129" y2="176.9"/>
	<line class="st1" x1="68.1" y1="171" x2="89.3" y2="139.4"/>
	<line class="st1" x1="131.4" y1="171" x2="110.2" y2="139.4"/>
	<line class="st1" x1="99.8" y1="141.5" x2="99.8" y2="176.9"/>
	<line class="st1" x1="87.3" y1="143.6" x2="87.3" y2="174.9"/>
	<line class="st1" x1="112.3" y1="143.6" x2="112.3" y2="176.9"/>
	<line class="st1" x1="124.8" y1="162.3" x2="124.8" y2="176.9"/>
	<line class="st1" x1="74.7" y1="162.3" x2="74.7" y2="176.9"/>
	<path class="st1" d="M87,89.9c2.2,2.5,2.2,11.1,2.2,11.1s0.3,11.3-2.2,12.9c-7.7,5.1-36.7,6.6-43.2,0c-6.5-6.6,0.4-18.2,8.4-24
		C60.8,83.6,80.7,83,87,89.9z"/>
	<path class="st1" d="M112.2,89.9c-2.2,2.5-2.2,11.1-2.2,11.1s-0.3,11.3,2.2,12.9c7.7,5.1,36.7,6.6,43.2,0c6.5-6.6-0.4-18.2-8.4-24
		C138.5,83.6,118.5,83,112.2,89.9z"/>
	<line class="st2" x1="139.7" y1="172.5" x2="155.7" y2="144.8"/>
	<path class="st2" d="M55.8,40.2c9-9.7,21.6-16.3,35.7-18.4"/>
	<path class="st2" d="M45.3,56.4c0.8-2,1.8-3.9,2.8-5.7"/>
	<line class="st2" x1="59.9" y1="172.5" x2="43.8" y2="144.8"/>
	<path class="st2" d="M158.4,172.7c14.4-2,33-8.6,35.7-10"/>
	<path class="st2" d="M41.8,172.7c-14.4-2-33.6-8.8-36.4-10.2"/>
	<path class="st2" d="M172.8,93.5c0,0-17.4-37.9-64.7-20.9"/>
	<path class="st2" d="M26.8,93.5c0,0,17.4-37.9,64.7-20.9"/>
	<path class="st2" d="M91.4,8.5C55.1,12.6,26.8,43.5,26.8,81v12.5L6.7,158.9c-3.7,10-4.9,20,2.1,23.6c20.4,10.6,67.8,13.2,91,13.2
		s70.6-2.6,91-13.2c7-3.6,5.8-13.6,2.1-23.6l-20.1-65.4l0.1-10.4l-0.1-2.2c0-37.5-28.2-68.4-64.6-72.5"/>
</g>
<g id="planet" class="st0">
	<g class="st3">
		<circle class="st4" cx="73.2" cy="55.6" r="2.1"/>
	</g>
	<circle class="st2" cx="73.2" cy="55.6" r="26.9"/>
	<g class="st3">
		<circle class="st5" cx="193" cy="49.4" r="2.1"/>
	</g>
	<g class="st3">
		<circle class="st5" cx="174.4" cy="187.8" r="2.1"/>
	</g>
	<g class="st3">
		<circle class="st5" cx="178.5" cy="14.3" r="10.3"/>
	</g>
	<line class="st2" x1="5" y1="99" x2="195" y2="99"/>
	<line class="st2" x1="126.9" y1="18.5" x2="153.7" y2="18.5"/>
	<line class="st2" x1="147.5" y1="49.4" x2="178.5" y2="49.4"/>
	<line class="st2" x1="141.3" y1="61.8" x2="174.4" y2="61.8"/>
	<line class="st2" x1="141.3" y1="32.9" x2="162" y2="32.9"/>
	<line class="st2" x1="147.5" y1="194" x2="100" y2="194"/>
	<line class="st2" x1="186.8" y1="154.8" x2="155.8" y2="154.8"/>
	<line class="st2" x1="180.6" y1="142.4" x2="137.2" y2="142.4"/>
	<line class="st2" x1="170.3" y1="169.3" x2="149.6" y2="169.3"/>
	<line class="st2" x1="172.3" y1="86.6" x2="194.3" y2="86.6"/>
	<line class="st2" x1="178.5" y1="121.7" x2="192.2" y2="121.7"/>
	<line class="st2" x1="184.7" y1="111.4" x2="194.2" y2="111.4"/>
	<path class="st2" d="M108.3,172.9c-1.3,0.1-2.5,0.2-3.8,0.3"/>
	<path class="st2" d="M89.7,173.4c-20.5-3.1-39-15.3-50.5-31.5"/>
	<line class="st2" x1="172.3" y1="111.4" x2="168.2" y2="111.4"/>
	<line class="st2" x1="162" y1="121.7" x2="157.9" y2="121.7"/>
	<line class="st2" x1="124.8" y1="142.4" x2="120.7" y2="142.4"/>
	<line class="st2" x1="133.1" y1="49.4" x2="128.9" y2="49.4"/>
	<path class="st1" d="M143.8,183.4c0,0,17.5-7.6,25.1-46.6c0,0,0.2-5.3,20-4.7h0c4-10.3,6.2-21.5,6.2-33.4c0-8.5-1.1-16.3-3.2-24.1
		l-0.2-0.7c-19,1.6-26.9-3.8-26.9-3.8c-8.3-44.1-29.2-59.3-29.2-59.3l-0.1,0C124.5,6.4,112.5,4,100,4C47.5,4,5,46.5,5,99
		s42.5,95,95,95C115.8,194,130.7,190.3,143.8,183.4L143.8,183.4z"/>
</g>
<g id="vehicles">
	<line class="st5" x1="69.3" y1="95.5" x2="33.4" y2="59.6"/>
	<line class="st5" x1="85.2" y1="82.3" x2="48.3" y2="45.3"/>
	<g>
		<circle class="st5" cx="47.4" cy="152.5" r="2.1"/>
	</g>
	<g>
		<circle class="st5" cx="62" cy="137.9" r="2.1"/>
	</g>
	<g>
		<circle class="st5" cx="33" cy="128.4" r="2.1"/>
	</g>
	<g>
		<circle class="st5" cx="51.6" cy="119.6" r="2.1"/>
	</g>
	<g>
		<circle class="st5" cx="71.5" cy="166.9" r="2.1"/>
	</g>
	<g>
		<circle class="st5" cx="80.3" cy="148.3" r="2.1"/>
	</g>
	<polyline class="st5" points="103.7,84.5 174.5,13.8 165.7,5 68.3,34.9 	"/>
	<line class="st5" x1="154" y1="34.2" x2="165.7" y2="45.9"/>
	<path class="st5" d="M152.2,59.3c11.7,14.5,17.1,32.7,16.6,50.4"/>
	<path class="st6" d="M156.9,136.4"/>
	<polyline class="st5" points="114.7,96.8 186.1,25.4 194.9,34.2 172.1,106.7 	"/>
	<path class="st5" d="M122.7,119.7l53.3,12.4L192,116c4-4,4-10.6,0-14.6l0,0c-4-4-10.6-4-14.6,0l-8.6,8.4l-54.2-13"/>
	<line class="st5" x1="154.8" y1="151.8" x2="115.6" y2="112.8"/>
	<line class="st5" x1="140.6" y1="166.8" x2="102.6" y2="128.5"/>
	<circle class="st4" cx="91.7" cy="106.2" r="24.8"/>
	<line class="st5" x1="17.2" y1="95.9" x2="69.3" y2="95.5"/>
	<line class="st5" x1="104" y1="182.8" x2="102.5" y2="128.5"/>
	<path class="st5" d="M166.1,129.8c-3.5,11.5-9.9,22.4-19,31.5c-12,12-27.1,19.2-42.7,21.5L92.1,195l0,0c-20.7,0-44.4-8.6-61.6-25.7
		c-17.1-17.1-25.7-39.5-25.7-61.9l0,0l12.4-11.5c2.4-15.5,9.9-30.7,21.8-42.7c27.8-27.8,71.7-29.7,101.7-5.7"/>
</g>
</svg>
