<?xml version="1.0" encoding="utf-8"?>
<!-- Generator: Adobe Illustrator 22.0.1, SVG Export Plug-In . SVG Version: 6.00 Build 0)  -->
<svg version="1.1" id="Layer_1" xmlns="http://www.w3.org/2000/svg" xmlns:xlink="http://www.w3.org/1999/xlink" x="0px" y="0px"
	 viewBox="0 0 187 93.5" style="enable-background:new 0 0 187 93.5;" xml:space="preserve">
<style type="text/css">
	.st0{fill:#F6E730;}
</style>
<g>
	<path class="st0" d="M7.9,34.3v9.3h30c2.3,0,4.3-0.8,5.8-2c1.1-1,2-2.2,2.6-3.5c0.6-1.3,0.9-2.8,0.9-4.1c0-1.8-0.5-3.5-1.6-4.7
		l-7.3-8.7c-0.3-0.4-0.5-0.7-0.6-1c-0.1-0.5-0.1-0.9,0.2-1.3l0,0c0.2-0.3,0.5-0.5,0.8-0.7c0.4-0.2,0.9-0.3,1.3-0.3H61H62v0.9v25.3
		h9.4V18.2v-0.9h0.9h14V8.1H36c-2.5,0-4.5,0.8-6,2.1c-1.1,0.9-1.9,2.1-2.5,3.3c-0.6,1.3-0.9,2.7-0.9,4h0c0,1.9,0.6,3.8,1.9,5.3
		l6.6,7.9c0.8,0.9,1.1,1.7,0.9,2.4c-0.2,0.8-1,1.2-2.3,1.2v0H7.9L7.9,34.3z M6,44.5V33.3v-0.9H7h26.7v0c0.4,0,0.5,0.3,0.5,0.2
		c0,0-0.2-0.2-0.5-0.6L27,24.1c-1.6-1.9-2.3-4.2-2.3-6.6h0c0-1.6,0.4-3.3,1-4.8c0.7-1.5,1.7-2.9,3-4C30.6,7.2,33,6.2,36,6.2h51.3
		h0.9v0.9v11.1v0.9h-0.9h-14v25.3v0.9h-0.9H61h-0.9v-0.9V19.2h-20c-0.1,0-0.3,0-0.4,0c0,0,0,0,0.1,0.1l7.3,8.7c1.4,1.6,2,3.8,2,6
		c0,1.6-0.4,3.3-1.1,4.9c-0.7,1.6-1.8,3-3.1,4.2c-1.8,1.5-4.2,2.5-7,2.5H7H6V44.5L6,44.5z"/>
	<path class="st0" d="M58.1,50.4l-9,37.4l-0.2,0.7h-0.7H36.7h-0.8l-0.2-0.7l-3.6-16.1l-3.6,16.1l-0.2,0.7h-0.8H16.2h-0.7l-0.2-0.7
		l-9-37.4L6,49.3h1.2h11.1h0.8l0.2,0.7l3.5,15.9L26.3,50l0.2-0.7h0.8H37h0.8l0.2,0.7l3.5,15.9L45,50l0.2-0.7h0.8h11.2h1.2L58.1,50.4
		L58.1,50.4z M47.4,86.7l8.5-35.5h-9.3l-4.3,19.3l-0.9,4.2l-0.9-4.2l-4.3-19.3H28l-4.3,19.3l-0.9,4.2l-0.9-4.2l-4.3-19.3H8.4
		l8.5,35.5h10l4.3-19.5l0.9-4.2l0.9,4.2l4.3,19.5H47.4L47.4,86.7z"/>
	<path class="st0" d="M86.6,44.3l9-37.4l0.2-0.7l0.7,0l21,0l0.7,0l0.2,0.7l9,37.4l0.3,1.2h-1.2h-11.4h-0.7l-0.2-0.7L113,40h-12.2
		l-1.1,4.8l-0.2,0.7h-0.7H87.5h-1.2L86.6,44.3L86.6,44.3z M97.3,8.1l-8.5,35.5h9.3l1.1-4.8l0.2-0.7h0.7h13.7h0.7l0.2,0.7l1.1,4.8
		h9.4l-8.5-35.5L97.3,8.1L97.3,8.1z M107,17.9l-3.7,12.6h7.4L107,17.9L107,17.9z M101.1,31.1l5-16.8l0.9-3.1l0.9,3.1l5,16.8l0.4,1.2
		h-1.3h-10h-1.3L101.1,31.1L101.1,31.1z"/>
	<path class="st0" d="M131.3,8.1l0,35.5h9.4V33.3c0-1.6,0.4-2.5,1.2-2.8c0.8-0.3,1.7,0.1,2.8,1.2l9.6,9.6c2.2,2.2,2.3,2.2,4.9,2.2v0
		h0.1h20.6v-9.3h-20.2c-1,0-1.2-0.1-1.7-0.7l0,0l-2.3-2.3l-1-1l1.3-0.5l0,0c0.2-0.1,0.4-0.2,0.5-0.2c0.1-0.1,0.3-0.2,0.6-0.3
		c1-0.5,2.2-1.2,3-1.7c2.2-1.5,3.6-3.7,4.2-6c0.5-2,0.5-4-0.1-6c-0.6-1.9-1.7-3.7-3.3-5c-1.9-1.5-4.4-2.5-7.6-2.5L131.3,8.1
		L131.3,8.1z M129.4,44.5l0-37.4l0-0.9l0.9,0l22.8,0c3.7,0,6.6,1.1,8.8,2.9c1.9,1.6,3.2,3.6,3.9,5.9c0.7,2.3,0.7,4.7,0.1,7
		c-0.7,2.7-2.3,5.2-4.9,7.1c-0.8,0.6-2.1,1.3-3.2,1.8l1.3,1.3l0,0c0.1,0.1,0.2,0.2,0.4,0.2h21.2h0.9v0.9v11.2v0.9h-0.9h-21.6h-0.1v0
		c-3.3,0-3.5,0-6.2-2.7l-9.6-9.6c-0.5-0.5-0.8-0.8-0.8-0.8c0,0,0,0.3,0,1v11.2v0.9h-0.9h-11.3h-0.9L129.4,44.5L129.4,44.5z
		 M142.5,17.4v7.5h8c1.9,0,3.1-1,3.7-2.3c0.2-0.5,0.3-1,0.3-1.6c0-0.5-0.1-1.1-0.3-1.5c-0.5-1.2-1.7-2.1-3.7-2.1H142.5L142.5,17.4z
		 M140.6,25.9v-9.4v-0.9h0.9h8.9c2.9,0,4.7,1.4,5.5,3.2c0.3,0.7,0.5,1.5,0.5,2.3c0,0.8-0.2,1.6-0.5,2.3c-0.8,1.9-2.7,3.5-5.4,3.5
		h-8.9h-0.9V25.9L140.6,25.9z"/>
	<path class="st0" d="M155.2,75.5c0.1,0,0.2,0,0.3,0c-0.1-0.1-0.2-0.3-0.3-0.5l-6.6-7.9c-1.6-1.9-2.3-4.2-2.3-6.6h0
		c0-1.6,0.4-3.3,1-4.8c0.7-1.5,1.7-2.9,3-4c1.9-1.6,4.3-2.6,7.3-2.6h23.2h0.9v0.9v11.1v0.9h-0.9h-19.1c-0.5,0-0.7-0.1-0.7-0.1
		c-0.1,0.1,0.2-0.1,0.4,0.2l7.3,8.7c1.4,1.6,2,3.8,2,6c0,1.6-0.4,3.3-1.1,4.9c-0.7,1.6-1.8,3-3.1,4.2c-1.8,1.5-4.2,2.5-7,2.5v0
		h-30.1v0h-0.1v0c-3.3,0-3.5,0-6.2-2.7l-9.6-9.6c-0.5-0.5-0.8-0.8-0.8-0.8c0,0,0,0.3,0,1v11.2v0.9h-0.9h-11.3h-0.9l0-0.9l0-37.4
		l0-0.9l0.9,0l22.8,0c3.7,0,6.6,1.1,8.8,2.9c1.9,1.6,3.2,3.6,3.9,5.9c0.7,2.3,0.7,4.7,0.1,7c-0.7,2.7-2.3,5.2-4.9,7.1l0,0l0,0
		c-0.2,0.1-0.3,0.2-0.6,0.4c-0.2,0.1-0.4,0.3-0.6,0.4c-0.6,0.4-1.4,0.7-2,1.1l1.3,1.3l0,0c0.1,0.1,0.2,0.2,0.4,0.2H155.2L155.2,75.5
		z M156.5,77.2c-0.3,0.1-0.8,0.2-1.3,0.2h-25.4c-1,0-1.2-0.1-1.7-0.7l0,0l-2.3-2.3l-1-1l1.3-0.6c0.8-0.4,2-1,3.1-1.5
		c0.2-0.1,0.4-0.2,0.6-0.3c0.2-0.1,0.3-0.2,0.5-0.3l0,0l0,0c2.2-1.5,3.6-3.7,4.2-6c0.5-2,0.5-4-0.1-6c-0.6-1.9-1.7-3.7-3.3-5
		c-1.9-1.5-4.4-2.5-7.6-2.5l-21.8,0l0,35.5h9.4V76.5c0-1.6,0.4-2.5,1.2-2.8c0.8-0.3,1.7,0.1,2.8,1.2l9.6,9.6
		c2.2,2.2,2.3,2.2,4.9,2.2v0h0.1v0h30.1v0c2.3,0,4.3-0.8,5.8-2c1.1-1,2-2.2,2.6-3.5c0.6-1.3,0.9-2.8,0.9-4.1c0-1.8-0.5-3.5-1.6-4.7
		l-7.3-8.7c-0.7-0.9-1-1.6-0.6-2.3c0.3-0.6,1.1-0.9,2.4-0.9h18.1v-9.2h-22.3c-2.5,0-4.5,0.8-6,2.1c-1.1,0.9-1.9,2.1-2.5,3.3
		c-0.6,1.3-0.9,2.7-0.9,4h0c0,1.9,0.6,3.8,1.9,5.3l6.6,7.9c0.4,0.5,0.7,0.9,0.8,1.3c0.1,0.4,0.1,0.8,0,1.2
		C157.2,76.7,157,77,156.5,77.2L156.5,77.2z M112.7,60.6v7.5h8c1.9,0,3.1-1,3.7-2.3c0.2-0.5,0.3-1,0.3-1.6c0-0.5-0.1-1.1-0.3-1.5
		c-0.5-1.2-1.7-2.1-3.7-2.1H112.7L112.7,60.6z M110.8,69v-9.4v-0.9h0.9h8.9c2.9,0,4.7,1.4,5.5,3.2c0.3,0.7,0.5,1.5,0.5,2.3
		c0,0.8-0.2,1.6-0.5,2.3c-0.8,1.9-2.7,3.5-5.4,3.5h-8.9h-0.9V69L110.8,69z"/>
	<path class="st0" d="M56.6,87.4l9-37.4l0.2-0.7l0.7,0l21,0l0.7,0l0.2,0.7l9,37.4l0.3,1.2h-1.2H85.1h-0.7l-0.2-0.7l-1.1-4.8H70.9
		l-1.1,4.8l-0.2,0.7h-0.7H57.6h-1.2L56.6,87.4L56.6,87.4z M67.3,51.2l-8.5,35.5h9.3l1.1-4.8l0.2-0.7h0.7h13.7h0.7l0.2,0.7l1.1,4.8
		h9.4l-8.5-35.5L67.3,51.2L67.3,51.2z M77,61l-3.7,12.6h7.4L77,61L77,61z M71.1,74.2l5-16.8l0.9-3.1l0.9,3.1l5,16.8l0.4,1.2H82H72
		h-1.3L71.1,74.2L71.1,74.2z"/>
</g>
</svg>
